# AST/ASF file generated using VICON BodyLanguage
# -----------------------------------------------
:version 1.10
:name VICON
:units
  mass 1.0
  length 0.45
  angle deg
:documentation
   .ast/.asf automatically generated from VICON data using
   VICON BodyBuilder and BodyLanguage model FoxedUp or BRILLIANT.MOD
:root
   order TX TY TZ RX RY RZ
   axis XYZ
   position 0 0 0  
   orientation 0 0 0 
:bonedata
  begin
     id 1 
     name lhipjoint
     direction 0.722297 -0.617336 0.311742 
     length 2.6635 
     axis 0 0 0  XYZ
  end
  begin
     id 2 
     name lfemur
     direction 0.34202 -0.939693 0  
     length 7.39349  
     axis 0 0 20  XYZ
    dof rx ry rz
    limits (-160.0 20.0)
           (-70.0 70.0)
           (-60.0 70.0)
  end
  begin
     id 3 
     name ltibia
     direction 0.34202 -0.939693 0   
     length 7.36294   
     axis 0 0 20   XYZ
    dof rx
    limits (-10.0 170.0)
  end
  begin
     id 4 
     name lfoot
     direction 0.104879 -0.288152 0.951824   
     length 2.16981   
     axis -90 7.62852e-016 20   XYZ
    dof rx rz
    limits (-45.0 90.0)
           (-70.0 20.0)
  end
  begin
     id 5 
     name ltoes
     direction 1.53586e-011 -4.21895e-011 1   
     length 1.08218   
     axis -90 7.62852e-016 20   XYZ
    dof rx
    limits (-90.0 20.0)
  end
  begin
     id 6 
     name rhipjoint
     direction -0.75102 -0.589393 0.297631   
     length 2.78977  
     axis 0 0 0  XYZ 
  end
  begin
     id 7 
     name rfemur
     direction -0.34202 -0.939693 0   
     length 7.46076   
     axis 0 0 -20   XYZ
    dof rx ry rz
    limits (-160.0 20.0)
           (-70.0 70.0)
           (-70.0 60.0)
  end
  begin
     id 8 
     name rtibia
     direction -0.34202 -0.939693 0   
     length 7.31726   
     axis 0 0 -20   XYZ
    dof rx
    limits (-10.0 170.0)
 end
 begin
     id 9 
     name rfoot
     direction -0.107991 -0.296704 0.948844   
     length 2.09388  
     axis -90 -7.62852e-016 -20   XYZ
    dof rx rz
    limits (-45.0 90.0)
           (-20.0 70.0)
  end
  begin
     id 10 
     name rtoes
     direction -1.53559e-011 -4.21911e-011 1   
     length 1.04433   
     axis -90 -7.62852e-016 -20   XYZ
    dof rx
    limits (-90.0 20.0)
  end
  begin
     id 11 
     name lowerback
     direction 0.0165164 0.98272 0.184358   
     length 1.71896   
     axis 0 0 0   XYZ
    dof rx ry rz
    limits (-20.0 45.0)
           (-30.0 30.0)
           (-30.0 30.0)
  end
  begin
     id 12 
     name upperback
     direction -0.00887249 0.992297 0.123566   
     length 1.71504   
     axis 0 0 0   XYZ
    dof rx ry rz
    limits (-20.0 45.0)
           (-30.0 30.0)
           (-30.0 30.0)
  end
  begin
     id 13 
     name thorax
     direction -0.0157026 0.998908 0.0440032   
     length 1.77022   
     axis 0 0 0   XYZ
    dof rx ry rz
    limits (-20.0 45.0)
           (-30.0 30.0)
           (-30.0 30.0)
  end
  begin
     id 14 
     name lowerneck
     direction -0.0238856 0.998137 0.0561411   
     length 1.89341   
     axis 0 0 0   XYZ
    dof rx ry rz
    limits (-20.0 45.0)
           (-30.0 30.0)
           (-30.0 30.0)
  end
  begin
     id 15 
     name upperneck
     direction 0.0276574 0.952253 -0.304056   
     length 1.86999   
     axis 0 0 0   XYZ
    dof rx ry rz
    limits (-20.0 45.0)
           (-30.0 30.0)
           (-30.0 30.0)
  end
  begin
     id 16
     name head
     direction 0.00800083 0.994258 -0.106712  
     length 1.91492  
     axis 0 0 0   XYZ
    dof rx ry rz
    limits (-20.0 45.0)
           (-30.0 30.0)
           (-30.0 30.0)
  end
  begin
     id 17 
     name lclavicle
     direction 0.97203 0.225407 0.06595  
     length 3.34889  
     axis 0 0 0   XYZ
    dof ry rz
    limits (-20.0 10.0)
           (0.0 20.0)
  end
  begin
     id 18 
     name lhumerus
     direction 1 -4.48973e-011 2.20267e-027   
     length 4.85645   
     axis 180 -30 -90   XYZ
    dof rx ry rz
    limits (-60.0 90.0)
           (-90.0 90.0)
           (-90.0 90.0)
  end
  begin
     id 19
     name lradius
     direction 1 -4.4897e-011 4.60472e-027   
     length 2.79874   
     axis 180 -30 -90   XYZ
    dof rx
    limits (-10.0 170.0)
  end
  begin
     id 20
     name lwrist
     direction 1 -4.48952e-011 1.14928e-026   
     length 1.39937   
     axis -6.29373e-015 90 90   XYZ
    dof ry
    limits (-180.0 0.0)
 end
  begin
     id 21 
     name lhand
     direction 1 -4.48967e-011 2.29886e-026   
     length 0.573398   
     axis -1.46689e-014 90 90   XYZ
    dof rx rz
    limits (-90.0 90.0)
           (-45.0 45.0)
  end
  begin
     id 22 
     name lfingers
     direction 1 -4.48955e-011 4.59726e-026   
     length 0.462289   
     axis -2.93383e-014 90 90   XYZ
    dof rx
    limits (0.0 90.0)
  end
  begin
     id 23
     name lthumb
     direction 0.707107 -6.34866e-011 0.707107   
     length 0.663757   
     axis -90 45 5.69224e-014   XYZ
    dof rx rz
    limits (-45.0 45.0)
           (-45.0 45.0)
  end
  begin
     id 24 
     name rclavicle
     direction -0.981571 0.157346 0.108443   
     length 3.35257  
     axis 0 0 0   XYZ 
    dof ry rz
    limits (-10.0 20.0)
           (-20.0 0.0)
  end
  begin
     id 25 
     name rhumerus
     direction -1 -4.48967e-011 8.58308e-029  
     length 4.67018   
     axis 180 30 90   XYZ
    dof rx ry rz
    limits (-90.0 60.0)
           (-90.0 90.0)
           (-90.0 90.0)
  end
  begin
     id 26 
     name rradius
     direction -1 -4.48958e-011 4.52548e-027   
     length 2.65534   
     axis 180 30 90   XYZ
    dof rx
    limits (-10.0 170.0)
  end
  begin
     id 27 
     name rwrist
     direction -1 -4.48977e-011 1.14952e-026   
     length 1.32767   
     axis -6.29373e-015 -90 -90   XYZ
    dof ry
    limits (-180.0 0.0)
  end
  begin
     id 28
     name rhand
     direction -1 -4.48924e-011 2.29804e-026   
     length 0.594069   
     axis -1.46689e-014 -90 -90   XYZ
    dof rx rz
    limits (-90.0 90.0)
           (-45.0 45.0)
  end
  begin
     id 29
     name rfingers
     direction -1 -4.48998e-011 4.59888e-026   
     length 0.478954   
     axis -2.93383e-014 -90 -90   XYZ
    dof rx
    limits (0.0 90.0)
  end
  begin
     id 30
     name rthumb
     direction -0.707107 -6.34933e-011 0.707107   
     length 0.687685   
     axis -90 -45 -5.69224e-014   XYZ
    dof rx rz
    limits (-45.0 45.0)
           (-45.0 45.0)
  end
:hierarchy
  begin
    root lhipjoint rhipjoint lowerback
    lhipjoint lfemur
    lfemur ltibia
    ltibia lfoot
    lfoot ltoes
    rhipjoint rfemur
    rfemur rtibia
    rtibia rfoot
    rfoot rtoes
    lowerback upperback
    upperback thorax
    thorax lowerneck lclavicle rclavicle
    lowerneck upperneck
    upperneck head
    lclavicle lhumerus
    lhumerus lradius
    lradius lwrist
    lwrist lhand lthumb
    lhand lfingers
    rclavicle rhumerus
    rhumerus rradius
    rradius rwrist
    rwrist rhand rthumb
    rhand rfingers
  end

#!OML:ASF E:\pregnant2\Project 1\Capture day 1\Session 1\pregnant2.ASF
:FULLY-SPECIFIED
:DEGREES
64
root 7.70804 10.7009 15.7423 13.0142 -1.01392 3.71857
lowerback 5.49639 -0.877632 -3.88326
upperback -11.6422 -1.92401 -1.32731
thorax -15.9946 -0.546129 1.04082
lowerneck -12.3776 -6.50835 -9.92012
upperneck 26.3952 -9.38167 8.39835
head 11.5125 -4.31539 3.45264
rclavicle -1.19271e-015 9.54166e-015
rhumerus -28.886 41.0568 -104.4
rradius 57.108
rwrist 25.2763
rhand -12.4171 -1.659
rfingers 7.12502
rthumb 13.655 -31.1911
lclavicle -1.19271e-015 9.54166e-015
lhumerus -28.3155 -37.1688 100.961
lradius 57.2834
lwrist -20.8585
lhand -4.85827 14.7624
lfingers 7.12502
lthumb 20.9296 43.6533
rfemur -97.4052 -7.01293 14.4664
rtibia 71.0393
rfoot 14.7979 -4.26498
rtoes 4.62002
lfemur -94.2773 2.19325 -19.1588
ltibia 65.4046
lfoot 14.1807 -4.89247
ltoes -18.4772
65
root 7.7078 10.6996 15.741 12.9737 -0.996128 3.74798
lowerback 5.54639 -0.887699 -3.909
upperback -11.6416 -1.94436 -1.32821
thorax -16.0254 -0.551893 1.05897
lowerneck -12.2947 -6.58791 -10.0324
upperneck 26.2887 -9.47612 8.42225
head 11.4736 -4.36959 3.46598
rclavicle -3.72721e-016 1.19271e-015
rhumerus -28.7969 40.8469 -104.365
rradius 56.9801
rwrist 25.4956
rhand -12.0048 -1.6946
rfingers 7.12502
rthumb 14.0524 -31.1995
lclavicle -3.72721e-016 1.19271e-015
lhumerus -28.3001 -36.9645 100.991
lradius 57.2111
lwrist -21.2072
lhand -4.77204 14.8231
lfingers 7.12502
lthumb 21.0124 43.7048
rfemur -97.3786 -7.03822 14.4364
rtibia 71.0631
rfoot 14.7882 -4.26559
rtoes 4.63492
lfemur -94.2364 2.16565 -19.1783
ltibia 65.3945
lfoot 14.1904 -4.88117
ltoes -18.4527
66
root 7.70771 10.6982 15.7399 12.9392 -0.977002 3.77258
lowerback 5.58802 -0.896802 -3.92453
upperback -11.6431 -1.96183 -1.33066
thorax -16.0538 -0.557722 1.069
lowerneck -12.2124 -6.66729 -10.1402
upperneck 26.1831 -9.57118 8.4448
head 11.4351 -4.42374 3.478
rclavicle -8.44835e-015 -9.34288e-015
rhumerus -28.7174 40.6411 -104.344
rradius 56.8526
rwrist 25.6712
rhand -11.6248 -1.74882
rfingers 7.12502
rthumb 14.4185 -31.228
lclavicle -8.44835e-015 -9.34288e-015
lhumerus -28.2874 -36.7506 101.024
lradius 57.132
lwrist -21.5686
lhand -4.69354 14.8794
lfingers 7.12502
lthumb 21.0878 43.7527
rfemur -97.3564 -7.06387 14.4114
rtibia 71.0853
rfoot 14.7796 -4.26626
rtoes 4.65101
lfemur -94.2035 2.13682 -19.1908
ltibia 65.3831
lfoot 14.2051 -4.86554
ltoes -18.4113
67
root 7.70767 10.6968 15.739 12.9088 -0.959565 3.79652
lowerback 5.6231 -0.903913 -3.9366
upperback -11.6466 -1.97609 -1.3352
thorax -16.0806 -0.562666 1.07404
lowerneck -12.1251 -6.74629 -10.2471
upperneck 26.0733 -9.66686 8.46975
head 11.3944 -4.47796 3.49078
rclavicle 7.8023e-015 2.38542e-015
rhumerus -28.6516 40.4438 -104.336
rradius 56.7282
rwrist 25.7935
rhand -11.2893 -1.82055
rfingers 7.12502
rthumb 14.7418 -31.2763
lclavicle 7.8023e-015 2.38542e-015
lhumerus -28.2783 -36.5331 101.061
lradius 57.0457
lwrist -21.9381
lhand -4.62846 14.9273
lfingers 7.12502
lthumb 21.1504 43.7937
rfemur -97.339 -7.08811 14.3873
rtibia 71.107
rfoot 14.7728 -4.26635
rtoes 4.66833
lfemur -94.1736 2.10908 -19.2036
ltibia 65.3738
lfoot 14.2162 -4.85162
ltoes -18.3971
68
root 7.70762 10.6955 15.7382 12.8833 -0.942962 3.82005
lowerback 5.65179 -0.910535 -3.94784
upperback -11.6522 -1.98943 -1.34077
thorax -16.106 -0.567391 1.07715
lowerneck -12.0505 -6.82366 -10.3477
upperneck 25.9775 -9.76151 8.49347
head 11.3613 -4.53077 3.50213
rclavicle 2.38542e-015 2.62396e-014
rhumerus -28.5994 40.2553 -104.343
rradius 56.6072
rwrist 25.8854
rhand -10.9958 -1.8925
rfingers 7.12502
rthumb 15.0245 -31.3274
lclavicle 2.38542e-015 2.62396e-014
lhumerus -28.2702 -36.32 101.1
lradius 56.9501
lwrist -22.3075
lhand -4.58215 14.9679
lfingers 7.12502
lthumb 21.1948 43.8292
rfemur -97.3266 -7.11126 14.3632
rtibia 71.1277
rfoot 14.7676 -4.265
rtoes 4.67909
lfemur -94.1496 2.08222 -19.2163
ltibia 65.3657
lfoot 14.2257 -4.83852
ltoes -18.374
69
root 7.70755 10.6942 15.7376 12.8626 -0.926828 3.84384
lowerback 5.67467 -0.917546 -3.96039
upperback -11.6599 -2.00321 -1.34607
thorax -16.1302 -0.57216 1.08126
lowerneck -11.9863 -6.89926 -10.4431
upperneck 25.8934 -9.85407 8.51394
head 11.3341 -4.58212 3.51162
rclavicle 8.94531e-016 -1.55052e-014
rhumerus -28.5596 40.0762 -104.358
rradius 56.491
rwrist 25.9701
rhand -10.7417 -1.95875
rfingers 7.12502
rthumb 15.2693 -31.3752
lclavicle 8.94531e-016 -1.55052e-014
lhumerus -28.2625 -36.1132 101.14
lradius 56.8472
lwrist -22.679
lhand -4.55997 15.0016
lfingers 7.12502
lthumb 21.2161 43.8606
rfemur -97.3194 -7.13398 14.3387
rtibia 71.149
rfoot 14.7622 -4.26304
rtoes 4.68692
lfemur -94.1295 2.05578 -19.2311
ltibia 65.3602
lfoot 14.233 -4.82937
ltoes -18.3712
70
root 7.70741 10.6929 15.7374 12.8478 -0.910209 3.8688
lowerback 5.69191 -0.925122 -3.9753
upperback -11.6695 -2.01797 -1.35212
thorax -16.153 -0.577177 1.08592
lowerneck -11.922 -6.97263 -10.5373
upperneck 25.8102 -9.94509 8.53875
head 11.3075 -4.63218 3.52283
rclavicle 1.06847e-014 -1.19271e-015
rhumerus -28.5294 39.9019 -104.379
rradius 56.3793
rwrist 26.0663
rhand -10.5353 -2.01223
rfingers 7.12502
rthumb 15.4681 -31.4134
lclavicle 1.06847e-014 -1.19271e-015
lhumerus -28.2523 -35.9128 101.178
lradius 56.7409
lwrist -23.0532
lhand -4.55537 15.0284
lfingers 7.12502
lthumb 21.2206 43.8868
rfemur -97.3187 -7.15703 14.3129
rtibia 71.1714
rfoot 14.757 -4.26003
rtoes 4.68307
lfemur -94.1158 2.02892 -19.2484
ltibia 65.356
lfoot 14.2391 -4.82644
ltoes -18.3798
